<svg xmlns="http://www.w3.org/2000/svg" width="96" height="96" viewBox="0 0 96 96"><title>print</title><path fill="#000" fill-rule="nonzero" d="M80 64c-8.837 0-16-7.163-16-16s7.163-16 16-16 16 7.163 16 16-7.163 16-16 16zm0-12a4 4 0 1 0 0-8 4 4 0 0 0 0 8zM53 64V48c0-4.369 1.285-8.51 3.558-12H21c-6.627 0-12 5.373-12 12v14.392C3.672 59.795 0 54.326 0 48c0-8.837 7.163-16 16-16h55.746C65.956 34.992 62 41.034 62 48c0 6.966 3.957 13.008 9.746 16H53zm13.746-32C60.956 34.992 57 41.034 57 48v48H5V48c0-8.837 7.163-16 16-16h-5C7.163 32 0 24.837 0 16S7.163 0 16 0h55.746C65.956 2.992 62 9.034 62 16c0 6.966 3.957 13.008 9.746 16h-5zm-.973 0h-5.876a22.027 22.027 0 0 0-3.34 4h5.026a18.083 18.083 0 0 1 4.305-3.527L65.773 32zM80 32c-8.837 0-16-7.163-16-16S71.163 0 80 0s16 7.163 16 16-7.163 16-16 16zm0-12a4 4 0 1 0 0-8 4 4 0 0 0 0 8zM21 36c-6.627 0-12 5.373-12 12v44h44V48c0-4.369 1.285-8.51 3.558-12H21zm3.632 26H21v-6h20v6h-3.632l7.692 20H49v6H34v-6h4.632l-1.73-4.5H25.098l-1.73 4.5H28v6H13v-6h3.94l7.692-20zm6.368.157L27.022 72.5h7.956L31 62.157z"/></svg>