<svg xmlns="http://www.w3.org/2000/svg" xmlns:xlink="http://www.w3.org/1999/xlink" width="39" height="25"><defs><path id="a" d="M183.071 1955.196l.316-1.688c1.635.59 3.165.884 4.589.884 3.058 0 5.564-.964 7.515-2.894 1.951-1.929 2.927-4.903 2.927-8.922h-.317c-.158 1.393-.83 2.733-2.017 4.019-1.186 1.286-3.045 1.93-5.577 1.93-2.69 0-4.878-.791-6.566-2.372-1.687-1.581-2.531-3.685-2.531-6.31 0-2.734.87-4.89 2.61-6.472 1.74-1.58 3.877-2.371 6.408-2.371 2.953 0 5.287 1.045 7.001 3.135 1.714 2.09 2.571 4.877 2.571 8.36 0 4.127-.989 7.41-2.967 9.847-1.977 2.439-4.97 3.658-8.978 3.658-1.899 0-3.56-.268-4.984-.804zm-20.41 0l.317-1.688c1.635.59 3.164.884 4.588.884 3.059 0 5.564-.964 7.515-2.894 1.951-1.929 2.927-4.903 2.927-8.922h-.316c-.159 1.393-.83 2.733-2.018 4.019-1.186 1.286-3.045 1.93-5.577 1.93-2.69 0-4.878-.791-6.566-2.372-1.687-1.581-2.531-3.685-2.531-6.31 0-2.734.87-4.89 2.61-6.472 1.74-1.58 3.877-2.371 6.408-2.371 2.954 0 5.287 1.045 7.001 3.135 1.714 2.09 2.571 4.877 2.571 8.36 0 4.127-.989 7.41-2.966 9.847-1.978 2.439-4.97 3.658-8.979 3.658-1.899 0-3.56-.268-4.984-.804z"/></defs><use fill="#f7da5f" xlink:href="#a" transform="rotate(-180 100 978)"/></svg>